<svg xmlns="http://www.w3.org/2000/svg" viewBox="0 0 48 48" role="img" aria-label="Google logo">
  <path fill="#EA4335" d="M24 9.5c3.3 0 6.3 1.1 8.6 3.3l6.4-6.4C35.1 2.9 29.9.5 24 .5 14.6.5 6.5 6 2.6 14l7.9 6.1C12.3 13.5 17.7 9.5 24 9.5z"/>
  <path fill="#4285F4" d="M46.1 24.5c0-1.6-.1-3.1-.4-4.5H24v9h12.4c-.5 2.9-2.1 5.4-4.5 7.1l7 5.4c4.1-3.8 7.2-9.4 7.2-17z"/>
  <path fill="#FBBC05" d="M10.5 28.1a14.5 14.5 0 010-8.2l-7.9-6.1a24 24 0 000 20.4l7.9-6.1z"/>
  <path fill="#34A853" d="M24 47.5c6.5 0 12-2.1 16-5.9l-7-5.4c-2 1.3-4.6 2.2-9 2.2-6.3 0-11.7-4-13.6-9.6l-7.9 6.1C6.5 42 14.6 47.5 24 47.5z"/>
</svg>
